<mxfile host="4326ae5d-5ef8-477d-98d2-7717260c3361" modified="2020-10-01T12:05:04.154Z" agent="5.0 (Windows NT 10.0; Win64; x64) AppleWebKit/537.36 (KHTML, like Gecko) Code/1.49.2 Chrome/83.0.4103.122 Electron/9.2.1 Safari/537.36" etag="6YfiOuFhFvbAkChpYAAd" version="13.1.3" pages="2">
    <diagram id="J9-rcBfEQGX09gcnp4mj" name="Login">
        <mxGraphModel dx="1189" dy="794" grid="1" gridSize="10" guides="1" tooltips="1" connect="1" arrows="1" fold="1" page="1" pageScale="1" pageWidth="827" pageHeight="1169" math="0" shadow="0">
            <root>
                <mxCell id="0"/>
                <mxCell id="1" parent="0"/>
                <mxCell id="VCnG5QMiHwZn5JotL2Vl-1" value="" style="group" parent="1" vertex="1" connectable="0">
                    <mxGeometry x="50" y="80" width="740" height="520" as="geometry"/>
                </mxCell>
                <mxCell id="VCnG5QMiHwZn5JotL2Vl-4" value="Start / End" style="ellipse;whiteSpace=wrap;html=1;" parent="VCnG5QMiHwZn5JotL2Vl-1" vertex="1">
                    <mxGeometry x="15" y="44.4" width="90" height="65.6" as="geometry"/>
                </mxCell>
                <mxCell id="VCnG5QMiHwZn5JotL2Vl-5" value="Step / Function" style="rounded=0;whiteSpace=wrap;html=1;" parent="VCnG5QMiHwZn5JotL2Vl-1" vertex="1">
                    <mxGeometry x="10" y="119.99999999999999" width="100" height="56.83" as="geometry"/>
                </mxCell>
                <mxCell id="VCnG5QMiHwZn5JotL2Vl-6" value="Choice" style="rhombus;whiteSpace=wrap;html=1;" parent="VCnG5QMiHwZn5JotL2Vl-1" vertex="1">
                    <mxGeometry x="20" y="190.0029268292683" width="80" height="67.3780487804878" as="geometry"/>
                </mxCell>
                <mxCell id="VCnG5QMiHwZn5JotL2Vl-7" value="" style="endArrow=classic;html=1;strokeWidth=2;" parent="VCnG5QMiHwZn5JotL2Vl-1" edge="1">
                    <mxGeometry width="50" height="50" relative="1" as="geometry">
                        <mxPoint x="160" y="44.39780487804879" as="sourcePoint"/>
                        <mxPoint x="240" y="44.39780487804879" as="targetPoint"/>
                    </mxGeometry>
                </mxCell>
                <mxCell id="VCnG5QMiHwZn5JotL2Vl-8" value="" style="endArrow=classic;html=1;strokeWidth=2;fillColor=#d5e8d4;strokeColor=#82b366;" parent="VCnG5QMiHwZn5JotL2Vl-1" edge="1">
                    <mxGeometry width="50" height="50" relative="1" as="geometry">
                        <mxPoint x="160" y="73.30024390243901" as="sourcePoint"/>
                        <mxPoint x="240" y="73.30024390243901" as="targetPoint"/>
                    </mxGeometry>
                </mxCell>
                <mxCell id="VCnG5QMiHwZn5JotL2Vl-9" value="" style="endArrow=classic;html=1;strokeWidth=2;fillColor=#f8cecc;strokeColor=#b85450;" parent="VCnG5QMiHwZn5JotL2Vl-1" edge="1">
                    <mxGeometry width="50" height="50" relative="1" as="geometry">
                        <mxPoint x="160" y="104.20268292682928" as="sourcePoint"/>
                        <mxPoint x="240" y="104.20268292682928" as="targetPoint"/>
                    </mxGeometry>
                </mxCell>
                <mxCell id="VCnG5QMiHwZn5JotL2Vl-10" value="Flow" style="text;html=1;strokeColor=none;fillColor=none;align=center;verticalAlign=middle;whiteSpace=wrap;rounded=0;" parent="VCnG5QMiHwZn5JotL2Vl-1" vertex="1">
                    <mxGeometry x="160" y="46.41" width="80" height="16.95" as="geometry"/>
                </mxCell>
                <mxCell id="VCnG5QMiHwZn5JotL2Vl-11" value="Yes / True" style="text;html=1;strokeColor=none;fillColor=none;align=center;verticalAlign=middle;whiteSpace=wrap;rounded=0;" parent="VCnG5QMiHwZn5JotL2Vl-1" vertex="1">
                    <mxGeometry x="160" y="73.41" width="80" height="23.84" as="geometry"/>
                </mxCell>
                <mxCell id="VCnG5QMiHwZn5JotL2Vl-12" value="No / False" style="text;html=1;strokeColor=none;fillColor=none;align=center;verticalAlign=middle;whiteSpace=wrap;rounded=0;" parent="VCnG5QMiHwZn5JotL2Vl-1" vertex="1">
                    <mxGeometry x="160" y="104.41" width="80" height="17.74" as="geometry"/>
                </mxCell>
                <mxCell id="VCnG5QMiHwZn5JotL2Vl-14" value="Print / Display" style="shape=display;whiteSpace=wrap;html=1;strokeColor=#000000;" parent="VCnG5QMiHwZn5JotL2Vl-1" vertex="1">
                    <mxGeometry x="150" y="141.22000000000003" width="100" height="48.78" as="geometry"/>
                </mxCell>
                <mxCell id="VCnG5QMiHwZn5JotL2Vl-15" value="Player input" style="shape=parallelogram;perimeter=parallelogramPerimeter;whiteSpace=wrap;html=1;strokeColor=#000000;" parent="VCnG5QMiHwZn5JotL2Vl-1" vertex="1">
                    <mxGeometry x="150" y="202.38" width="100" height="55" as="geometry"/>
                </mxCell>
                <mxCell id="YUYwh50hMnzE2U0lZQsD-1" value="Entity" style="shape=table;startSize=30;container=1;collapsible=1;childLayout=tableLayout;fixedRows=1;rowLines=0;fontStyle=1;align=center;resizeLast=1;shadow=0;" parent="VCnG5QMiHwZn5JotL2Vl-1" vertex="1">
                    <mxGeometry x="350" y="42" width="180" height="160" as="geometry"/>
                </mxCell>
                <mxCell id="YUYwh50hMnzE2U0lZQsD-2" value="" style="shape=partialRectangle;collapsible=0;dropTarget=0;pointerEvents=0;fillColor=none;top=0;left=0;bottom=1;right=0;points=[[0,0.5],[1,0.5]];portConstraint=eastwest;" parent="YUYwh50hMnzE2U0lZQsD-1" vertex="1">
                    <mxGeometry y="30" width="180" height="30" as="geometry"/>
                </mxCell>
                <mxCell id="YUYwh50hMnzE2U0lZQsD-3" value="PK" style="shape=partialRectangle;connectable=0;fillColor=none;top=0;left=0;bottom=0;right=0;fontStyle=1;overflow=hidden;" parent="YUYwh50hMnzE2U0lZQsD-2" vertex="1">
                    <mxGeometry width="30" height="30" as="geometry"/>
                </mxCell>
                <mxCell id="YUYwh50hMnzE2U0lZQsD-4" value="UniqueID" style="shape=partialRectangle;connectable=0;fillColor=none;top=0;left=0;bottom=0;right=0;align=left;spacingLeft=6;fontStyle=5;overflow=hidden;" parent="YUYwh50hMnzE2U0lZQsD-2" vertex="1">
                    <mxGeometry x="30" width="150" height="30" as="geometry"/>
                </mxCell>
                <mxCell id="YUYwh50hMnzE2U0lZQsD-5" value="" style="shape=partialRectangle;collapsible=0;dropTarget=0;pointerEvents=0;fillColor=none;top=0;left=0;bottom=0;right=0;points=[[0,0.5],[1,0.5]];portConstraint=eastwest;" parent="YUYwh50hMnzE2U0lZQsD-1" vertex="1">
                    <mxGeometry y="60" width="180" height="30" as="geometry"/>
                </mxCell>
                <mxCell id="YUYwh50hMnzE2U0lZQsD-6" value="" style="shape=partialRectangle;connectable=0;fillColor=none;top=0;left=0;bottom=0;right=0;editable=1;overflow=hidden;" parent="YUYwh50hMnzE2U0lZQsD-5" vertex="1">
                    <mxGeometry width="30" height="30" as="geometry"/>
                </mxCell>
                <mxCell id="YUYwh50hMnzE2U0lZQsD-7" value="Row 1" style="shape=partialRectangle;connectable=0;fillColor=none;top=0;left=0;bottom=0;right=0;align=left;spacingLeft=6;overflow=hidden;" parent="YUYwh50hMnzE2U0lZQsD-5" vertex="1">
                    <mxGeometry x="30" width="150" height="30" as="geometry"/>
                </mxCell>
                <mxCell id="YUYwh50hMnzE2U0lZQsD-8" value="" style="shape=partialRectangle;collapsible=0;dropTarget=0;pointerEvents=0;fillColor=none;top=0;left=0;bottom=0;right=0;points=[[0,0.5],[1,0.5]];portConstraint=eastwest;" parent="YUYwh50hMnzE2U0lZQsD-1" vertex="1">
                    <mxGeometry y="90" width="180" height="30" as="geometry"/>
                </mxCell>
                <mxCell id="YUYwh50hMnzE2U0lZQsD-9" value="" style="shape=partialRectangle;connectable=0;fillColor=none;top=0;left=0;bottom=0;right=0;editable=1;overflow=hidden;" parent="YUYwh50hMnzE2U0lZQsD-8" vertex="1">
                    <mxGeometry width="30" height="30" as="geometry"/>
                </mxCell>
                <mxCell id="YUYwh50hMnzE2U0lZQsD-10" value="Row 2" style="shape=partialRectangle;connectable=0;fillColor=none;top=0;left=0;bottom=0;right=0;align=left;spacingLeft=6;overflow=hidden;" parent="YUYwh50hMnzE2U0lZQsD-8" vertex="1">
                    <mxGeometry x="30" width="150" height="30" as="geometry"/>
                </mxCell>
                <mxCell id="YUYwh50hMnzE2U0lZQsD-11" value="" style="shape=partialRectangle;collapsible=0;dropTarget=0;pointerEvents=0;fillColor=none;top=0;left=0;bottom=0;right=0;points=[[0,0.5],[1,0.5]];portConstraint=eastwest;" parent="YUYwh50hMnzE2U0lZQsD-1" vertex="1">
                    <mxGeometry y="120" width="180" height="30" as="geometry"/>
                </mxCell>
                <mxCell id="YUYwh50hMnzE2U0lZQsD-12" value="" style="shape=partialRectangle;connectable=0;fillColor=none;top=0;left=0;bottom=0;right=0;editable=1;overflow=hidden;" parent="YUYwh50hMnzE2U0lZQsD-11" vertex="1">
                    <mxGeometry width="30" height="30" as="geometry"/>
                </mxCell>
                <mxCell id="YUYwh50hMnzE2U0lZQsD-13" value="Row 3" style="shape=partialRectangle;connectable=0;fillColor=none;top=0;left=0;bottom=0;right=0;align=left;spacingLeft=6;overflow=hidden;" parent="YUYwh50hMnzE2U0lZQsD-11" vertex="1">
                    <mxGeometry x="30" width="150" height="30" as="geometry"/>
                </mxCell>
                <mxCell id="YUYwh50hMnzE2U0lZQsD-14" value="Entity_2" style="shape=table;startSize=30;container=1;collapsible=1;childLayout=tableLayout;fixedRows=1;rowLines=0;fontStyle=1;align=center;resizeLast=1;shadow=0;" parent="VCnG5QMiHwZn5JotL2Vl-1" vertex="1">
                    <mxGeometry x="550" y="42" width="180" height="160" as="geometry"/>
                </mxCell>
                <mxCell id="YUYwh50hMnzE2U0lZQsD-15" value="" style="shape=partialRectangle;collapsible=0;dropTarget=0;pointerEvents=0;fillColor=none;top=0;left=0;bottom=0;right=0;points=[[0,0.5],[1,0.5]];portConstraint=eastwest;" parent="YUYwh50hMnzE2U0lZQsD-14" vertex="1">
                    <mxGeometry y="30" width="180" height="30" as="geometry"/>
                </mxCell>
                <mxCell id="YUYwh50hMnzE2U0lZQsD-16" value="PK,FK1" style="shape=partialRectangle;connectable=0;fillColor=none;top=0;left=0;bottom=0;right=0;fontStyle=1;overflow=hidden;" parent="YUYwh50hMnzE2U0lZQsD-15" vertex="1">
                    <mxGeometry width="60" height="30" as="geometry"/>
                </mxCell>
                <mxCell id="YUYwh50hMnzE2U0lZQsD-17" value="Row 1" style="shape=partialRectangle;connectable=0;fillColor=none;top=0;left=0;bottom=0;right=0;align=left;spacingLeft=6;fontStyle=5;overflow=hidden;" parent="YUYwh50hMnzE2U0lZQsD-15" vertex="1">
                    <mxGeometry x="60" width="120" height="30" as="geometry"/>
                </mxCell>
                <mxCell id="YUYwh50hMnzE2U0lZQsD-18" value="" style="shape=partialRectangle;collapsible=0;dropTarget=0;pointerEvents=0;fillColor=none;top=0;left=0;bottom=1;right=0;points=[[0,0.5],[1,0.5]];portConstraint=eastwest;" parent="YUYwh50hMnzE2U0lZQsD-14" vertex="1">
                    <mxGeometry y="60" width="180" height="30" as="geometry"/>
                </mxCell>
                <mxCell id="YUYwh50hMnzE2U0lZQsD-19" value="PK,FK2" style="shape=partialRectangle;connectable=0;fillColor=none;top=0;left=0;bottom=0;right=0;fontStyle=1;overflow=hidden;" parent="YUYwh50hMnzE2U0lZQsD-18" vertex="1">
                    <mxGeometry width="60" height="30" as="geometry"/>
                </mxCell>
                <mxCell id="YUYwh50hMnzE2U0lZQsD-20" value="Row 2" style="shape=partialRectangle;connectable=0;fillColor=none;top=0;left=0;bottom=0;right=0;align=left;spacingLeft=6;fontStyle=5;overflow=hidden;" parent="YUYwh50hMnzE2U0lZQsD-18" vertex="1">
                    <mxGeometry x="60" width="120" height="30" as="geometry"/>
                </mxCell>
                <mxCell id="YUYwh50hMnzE2U0lZQsD-21" value="" style="shape=partialRectangle;collapsible=0;dropTarget=0;pointerEvents=0;fillColor=none;top=0;left=0;bottom=0;right=0;points=[[0,0.5],[1,0.5]];portConstraint=eastwest;" parent="YUYwh50hMnzE2U0lZQsD-14" vertex="1">
                    <mxGeometry y="90" width="180" height="30" as="geometry"/>
                </mxCell>
                <mxCell id="YUYwh50hMnzE2U0lZQsD-22" value="" style="shape=partialRectangle;connectable=0;fillColor=none;top=0;left=0;bottom=0;right=0;editable=1;overflow=hidden;" parent="YUYwh50hMnzE2U0lZQsD-21" vertex="1">
                    <mxGeometry width="60" height="30" as="geometry"/>
                </mxCell>
                <mxCell id="YUYwh50hMnzE2U0lZQsD-23" value="Row 3" style="shape=partialRectangle;connectable=0;fillColor=none;top=0;left=0;bottom=0;right=0;align=left;spacingLeft=6;overflow=hidden;" parent="YUYwh50hMnzE2U0lZQsD-21" vertex="1">
                    <mxGeometry x="60" width="120" height="30" as="geometry"/>
                </mxCell>
                <mxCell id="YUYwh50hMnzE2U0lZQsD-24" value="" style="shape=partialRectangle;collapsible=0;dropTarget=0;pointerEvents=0;fillColor=none;top=0;left=0;bottom=0;right=0;points=[[0,0.5],[1,0.5]];portConstraint=eastwest;" parent="YUYwh50hMnzE2U0lZQsD-14" vertex="1">
                    <mxGeometry y="120" width="180" height="30" as="geometry"/>
                </mxCell>
                <mxCell id="YUYwh50hMnzE2U0lZQsD-25" value="" style="shape=partialRectangle;connectable=0;fillColor=none;top=0;left=0;bottom=0;right=0;editable=1;overflow=hidden;" parent="YUYwh50hMnzE2U0lZQsD-24" vertex="1">
                    <mxGeometry width="60" height="30" as="geometry"/>
                </mxCell>
                <mxCell id="YUYwh50hMnzE2U0lZQsD-26" value="Row 4" style="shape=partialRectangle;connectable=0;fillColor=none;top=0;left=0;bottom=0;right=0;align=left;spacingLeft=6;overflow=hidden;" parent="YUYwh50hMnzE2U0lZQsD-24" vertex="1">
                    <mxGeometry x="60" width="120" height="30" as="geometry"/>
                </mxCell>
                <mxCell id="VCnG5QMiHwZn5JotL2Vl-16" value="&lt;b style=&quot;font-size: 20px&quot;&gt;Project 2&lt;br&gt;&quot;Name&quot;&lt;br&gt;&lt;/b&gt;" style="rounded=0;whiteSpace=wrap;html=1;" parent="1" vertex="1">
                    <mxGeometry x="174" y="10" width="480" height="60" as="geometry"/>
                </mxCell>
            </root>
        </mxGraphModel>
    </diagram>
    <diagram id="lSAOQ2Bn5s6fEelXwmq6" name="Database">
        <mxGraphModel dx="1189" dy="794" grid="1" gridSize="10" guides="1" tooltips="1" connect="1" arrows="1" fold="1" page="1" pageScale="1" pageWidth="827" pageHeight="1169" math="0" shadow="0">
            <root>
                <mxCell id="LmH7vjZOrNRtvjRKLYnd-0"/>
                <mxCell id="LmH7vjZOrNRtvjRKLYnd-1" parent="LmH7vjZOrNRtvjRKLYnd-0"/>
                <mxCell id="Ud4TdO5jimc6rSTcdH_G-0" value="&lt;b style=&quot;font-size: 20px&quot;&gt;Database&lt;br&gt;&lt;/b&gt;" style="rounded=0;whiteSpace=wrap;html=1;" parent="LmH7vjZOrNRtvjRKLYnd-1" vertex="1">
                    <mxGeometry x="600" y="10" width="480" height="60" as="geometry"/>
                </mxCell>
                <mxCell id="Ud4TdO5jimc6rSTcdH_G-14" value="user" style="shape=table;startSize=30;container=1;collapsible=1;childLayout=tableLayout;fixedRows=1;rowLines=0;fontStyle=1;align=center;resizeLast=1;shadow=0;fillColor=#dae8fc;strokeColor=#6c8ebf;" parent="LmH7vjZOrNRtvjRKLYnd-1" vertex="1">
                    <mxGeometry x="740" y="120" width="180" height="190" as="geometry">
                        <mxRectangle x="740" y="120" width="60" height="30" as="alternateBounds"/>
                    </mxGeometry>
                </mxCell>
                <mxCell id="Ud4TdO5jimc6rSTcdH_G-15" value="" style="shape=partialRectangle;collapsible=0;dropTarget=0;pointerEvents=0;fillColor=none;top=0;left=0;bottom=0;right=0;points=[[0,0.5],[1,0.5]];portConstraint=eastwest;shadow=0;" parent="Ud4TdO5jimc6rSTcdH_G-14" vertex="1">
                    <mxGeometry width="180" height="38" as="geometry"/>
                </mxCell>
                <mxCell id="Ud4TdO5jimc6rSTcdH_G-16" value="PK" style="shape=partialRectangle;connectable=0;fillColor=none;top=0;left=0;bottom=0;right=0;fontStyle=1;overflow=hidden;shadow=0;" parent="Ud4TdO5jimc6rSTcdH_G-15" vertex="1">
                    <mxGeometry width="60" height="38" as="geometry"/>
                </mxCell>
                <mxCell id="Ud4TdO5jimc6rSTcdH_G-17" value="user_id" style="shape=partialRectangle;connectable=0;fillColor=none;top=0;left=0;bottom=0;right=0;align=left;spacingLeft=6;fontStyle=5;overflow=hidden;shadow=0;" parent="Ud4TdO5jimc6rSTcdH_G-15" vertex="1">
                    <mxGeometry x="60" width="120" height="38" as="geometry"/>
                </mxCell>
                <mxCell id="Ud4TdO5jimc6rSTcdH_G-18" value="" style="shape=partialRectangle;collapsible=0;dropTarget=0;pointerEvents=0;fillColor=none;top=0;left=0;bottom=1;right=0;points=[[0,0.5],[1,0.5]];portConstraint=eastwest;shadow=0;" parent="Ud4TdO5jimc6rSTcdH_G-14" vertex="1">
                    <mxGeometry y="38" width="180" height="38" as="geometry"/>
                </mxCell>
                <mxCell id="Ud4TdO5jimc6rSTcdH_G-19" value="FK1" style="shape=partialRectangle;connectable=0;fillColor=#f8cecc;top=0;left=0;bottom=0;right=0;fontStyle=1;overflow=hidden;strokeColor=#b85450;shadow=0;" parent="Ud4TdO5jimc6rSTcdH_G-18" vertex="1">
                    <mxGeometry width="60" height="38" as="geometry"/>
                </mxCell>
                <mxCell id="Ud4TdO5jimc6rSTcdH_G-20" value="fk_login_id" style="shape=partialRectangle;connectable=0;fillColor=#f8cecc;top=0;left=0;bottom=0;right=0;align=left;spacingLeft=6;fontStyle=5;overflow=hidden;strokeColor=#b85450;shadow=0;" parent="Ud4TdO5jimc6rSTcdH_G-18" vertex="1">
                    <mxGeometry x="60" width="120" height="38" as="geometry"/>
                </mxCell>
                <mxCell id="Ud4TdO5jimc6rSTcdH_G-21" value="" style="shape=partialRectangle;collapsible=0;dropTarget=0;pointerEvents=0;fillColor=none;top=0;left=0;bottom=0;right=0;points=[[0,0.5],[1,0.5]];portConstraint=eastwest;shadow=0;" parent="Ud4TdO5jimc6rSTcdH_G-14" vertex="1">
                    <mxGeometry y="76" width="180" height="38" as="geometry"/>
                </mxCell>
                <mxCell id="Ud4TdO5jimc6rSTcdH_G-22" value="" style="shape=partialRectangle;connectable=0;fillColor=none;top=0;left=0;bottom=0;right=0;editable=1;overflow=hidden;shadow=0;" parent="Ud4TdO5jimc6rSTcdH_G-21" vertex="1">
                    <mxGeometry width="60" height="38" as="geometry"/>
                </mxCell>
                <mxCell id="Ud4TdO5jimc6rSTcdH_G-23" value="name" style="shape=partialRectangle;connectable=0;fillColor=none;top=0;left=0;bottom=0;right=0;align=left;spacingLeft=6;overflow=hidden;shadow=0;" parent="Ud4TdO5jimc6rSTcdH_G-21" vertex="1">
                    <mxGeometry x="60" width="120" height="38" as="geometry"/>
                </mxCell>
                <mxCell id="Ud4TdO5jimc6rSTcdH_G-54" value="" style="shape=partialRectangle;collapsible=0;dropTarget=0;pointerEvents=0;fillColor=none;top=0;left=0;bottom=0;right=0;points=[[0,0.5],[1,0.5]];portConstraint=eastwest;shadow=0;" parent="Ud4TdO5jimc6rSTcdH_G-14" vertex="1">
                    <mxGeometry y="114" width="180" height="38" as="geometry"/>
                </mxCell>
                <mxCell id="Ud4TdO5jimc6rSTcdH_G-55" value="" style="shape=partialRectangle;connectable=0;fillColor=none;top=0;left=0;bottom=0;right=0;editable=1;overflow=hidden;shadow=0;" parent="Ud4TdO5jimc6rSTcdH_G-54" vertex="1">
                    <mxGeometry width="60" height="38" as="geometry"/>
                </mxCell>
                <mxCell id="Ud4TdO5jimc6rSTcdH_G-56" value="position" style="shape=partialRectangle;connectable=0;fillColor=none;top=0;left=0;bottom=0;right=0;align=left;spacingLeft=6;overflow=hidden;shadow=0;" parent="Ud4TdO5jimc6rSTcdH_G-54" vertex="1">
                    <mxGeometry x="60" width="120" height="38" as="geometry"/>
                </mxCell>
                <mxCell id="Ud4TdO5jimc6rSTcdH_G-58" value="" style="shape=partialRectangle;collapsible=0;dropTarget=0;pointerEvents=0;fillColor=none;top=0;left=0;bottom=0;right=0;points=[[0,0.5],[1,0.5]];portConstraint=eastwest;shadow=0;" parent="Ud4TdO5jimc6rSTcdH_G-14" vertex="1">
                    <mxGeometry y="152" width="180" height="38" as="geometry"/>
                </mxCell>
                <mxCell id="Ud4TdO5jimc6rSTcdH_G-59" value="" style="shape=partialRectangle;connectable=0;fillColor=none;top=0;left=0;bottom=0;right=0;editable=1;overflow=hidden;shadow=0;" parent="Ud4TdO5jimc6rSTcdH_G-58" vertex="1">
                    <mxGeometry width="60" height="38" as="geometry"/>
                </mxCell>
                <mxCell id="Ud4TdO5jimc6rSTcdH_G-60" value="health" style="shape=partialRectangle;connectable=0;fillColor=none;top=0;left=0;bottom=0;right=0;align=left;spacingLeft=6;overflow=hidden;shadow=0;" parent="Ud4TdO5jimc6rSTcdH_G-58" vertex="1">
                    <mxGeometry x="60" width="120" height="38" as="geometry"/>
                </mxCell>
                <mxCell id="Ud4TdO5jimc6rSTcdH_G-42" style="edgeStyle=orthogonalEdgeStyle;orthogonalLoop=1;jettySize=auto;html=1;entryX=0;entryY=0.5;entryDx=0;entryDy=0;endArrow=none;endFill=0;rounded=0;exitX=1;exitY=0.5;exitDx=0;exitDy=0;shadow=0;" parent="LmH7vjZOrNRtvjRKLYnd-1" source="Ud4TdO5jimc6rSTcdH_G-2" target="Ud4TdO5jimc6rSTcdH_G-18" edge="1">
                    <mxGeometry relative="1" as="geometry">
                        <mxPoint x="600" y="165" as="sourcePoint"/>
                        <Array as="points">
                            <mxPoint x="680" y="165"/>
                            <mxPoint x="680" y="195"/>
                        </Array>
                    </mxGeometry>
                </mxCell>
                <mxCell id="Ud4TdO5jimc6rSTcdH_G-1" value="login" style="shape=table;startSize=30;container=1;collapsible=1;childLayout=tableLayout;fixedRows=1;rowLines=0;fontStyle=1;align=center;resizeLast=1;shadow=0;fillColor=#dae8fc;strokeColor=#6c8ebf;" parent="LmH7vjZOrNRtvjRKLYnd-1" vertex="1">
                    <mxGeometry x="380" y="120" width="180" height="160" as="geometry"/>
                </mxCell>
                <mxCell id="Ud4TdO5jimc6rSTcdH_G-2" value="" style="shape=partialRectangle;collapsible=0;dropTarget=0;pointerEvents=0;fillColor=none;top=0;left=0;bottom=1;right=0;points=[[0,0.5],[1,0.5]];portConstraint=eastwest;shadow=0;" parent="Ud4TdO5jimc6rSTcdH_G-1" vertex="1">
                    <mxGeometry y="30" width="180" height="30" as="geometry"/>
                </mxCell>
                <mxCell id="Ud4TdO5jimc6rSTcdH_G-3" value="PK" style="shape=partialRectangle;connectable=0;fillColor=#f8cecc;top=0;left=0;bottom=0;right=0;fontStyle=1;overflow=hidden;strokeColor=#b85450;shadow=0;" parent="Ud4TdO5jimc6rSTcdH_G-2" vertex="1">
                    <mxGeometry width="30" height="30" as="geometry"/>
                </mxCell>
                <mxCell id="Ud4TdO5jimc6rSTcdH_G-4" value="login_id" style="shape=partialRectangle;connectable=0;fillColor=#f8cecc;top=0;left=0;bottom=0;right=0;align=left;spacingLeft=6;fontStyle=5;overflow=hidden;strokeColor=#b85450;shadow=0;" parent="Ud4TdO5jimc6rSTcdH_G-2" vertex="1">
                    <mxGeometry x="30" width="150" height="30" as="geometry"/>
                </mxCell>
                <mxCell id="Ud4TdO5jimc6rSTcdH_G-5" value="" style="shape=partialRectangle;collapsible=0;dropTarget=0;pointerEvents=0;fillColor=none;top=0;left=0;bottom=0;right=0;points=[[0,0.5],[1,0.5]];portConstraint=eastwest;shadow=0;" parent="Ud4TdO5jimc6rSTcdH_G-1" vertex="1">
                    <mxGeometry y="60" width="180" height="30" as="geometry"/>
                </mxCell>
                <mxCell id="Ud4TdO5jimc6rSTcdH_G-6" value="" style="shape=partialRectangle;connectable=0;fillColor=none;top=0;left=0;bottom=0;right=0;editable=1;overflow=hidden;shadow=0;" parent="Ud4TdO5jimc6rSTcdH_G-5" vertex="1">
                    <mxGeometry width="30" height="30" as="geometry"/>
                </mxCell>
                <mxCell id="Ud4TdO5jimc6rSTcdH_G-7" value="username" style="shape=partialRectangle;connectable=0;fillColor=none;top=0;left=0;bottom=0;right=0;align=left;spacingLeft=6;overflow=hidden;shadow=0;" parent="Ud4TdO5jimc6rSTcdH_G-5" vertex="1">
                    <mxGeometry x="30" width="150" height="30" as="geometry"/>
                </mxCell>
                <mxCell id="Ud4TdO5jimc6rSTcdH_G-8" value="" style="shape=partialRectangle;collapsible=0;dropTarget=0;pointerEvents=0;fillColor=none;top=0;left=0;bottom=0;right=0;points=[[0,0.5],[1,0.5]];portConstraint=eastwest;shadow=0;" parent="Ud4TdO5jimc6rSTcdH_G-1" vertex="1">
                    <mxGeometry y="90" width="180" height="30" as="geometry"/>
                </mxCell>
                <mxCell id="Ud4TdO5jimc6rSTcdH_G-9" value="" style="shape=partialRectangle;connectable=0;fillColor=none;top=0;left=0;bottom=0;right=0;editable=1;overflow=hidden;shadow=0;" parent="Ud4TdO5jimc6rSTcdH_G-8" vertex="1">
                    <mxGeometry width="30" height="30" as="geometry"/>
                </mxCell>
                <mxCell id="Ud4TdO5jimc6rSTcdH_G-10" value="password" style="shape=partialRectangle;connectable=0;fillColor=none;top=0;left=0;bottom=0;right=0;align=left;spacingLeft=6;overflow=hidden;shadow=0;" parent="Ud4TdO5jimc6rSTcdH_G-8" vertex="1">
                    <mxGeometry x="30" width="150" height="30" as="geometry"/>
                </mxCell>
                <mxCell id="Ud4TdO5jimc6rSTcdH_G-11" value="" style="shape=partialRectangle;collapsible=0;dropTarget=0;pointerEvents=0;fillColor=none;top=0;left=0;bottom=0;right=0;points=[[0,0.5],[1,0.5]];portConstraint=eastwest;shadow=0;" parent="Ud4TdO5jimc6rSTcdH_G-1" vertex="1">
                    <mxGeometry y="120" width="180" height="30" as="geometry"/>
                </mxCell>
                <mxCell id="Ud4TdO5jimc6rSTcdH_G-12" value="" style="shape=partialRectangle;connectable=0;fillColor=none;top=0;left=0;bottom=0;right=0;editable=1;overflow=hidden;shadow=0;" parent="Ud4TdO5jimc6rSTcdH_G-11" vertex="1">
                    <mxGeometry width="30" height="30" as="geometry"/>
                </mxCell>
                <mxCell id="Ud4TdO5jimc6rSTcdH_G-13" value="salt" style="shape=partialRectangle;connectable=0;fillColor=none;top=0;left=0;bottom=0;right=0;align=left;spacingLeft=6;overflow=hidden;shadow=0;" parent="Ud4TdO5jimc6rSTcdH_G-11" vertex="1">
                    <mxGeometry x="30" width="150" height="30" as="geometry"/>
                </mxCell>
                <mxCell id="Ud4TdO5jimc6rSTcdH_G-76" value="user_object" style="shape=table;startSize=30;container=1;collapsible=1;childLayout=tableLayout;fixedRows=1;rowLines=0;fontStyle=1;align=center;resizeLast=1;shadow=0;fillColor=#dae8fc;strokeColor=#6c8ebf;" parent="LmH7vjZOrNRtvjRKLYnd-1" vertex="1">
                    <mxGeometry x="1040" y="120" width="180" height="100" as="geometry">
                        <mxRectangle x="1040" y="120" width="100" height="30" as="alternateBounds"/>
                    </mxGeometry>
                </mxCell>
                <mxCell id="Ud4TdO5jimc6rSTcdH_G-80" value="" style="shape=partialRectangle;collapsible=0;dropTarget=0;pointerEvents=0;fillColor=none;top=0;left=0;bottom=1;right=0;points=[[0,0.5],[1,0.5]];portConstraint=eastwest;shadow=0;" parent="Ud4TdO5jimc6rSTcdH_G-76" vertex="1">
                    <mxGeometry width="180" height="50" as="geometry"/>
                </mxCell>
                <mxCell id="Ud4TdO5jimc6rSTcdH_G-81" value="FK1" style="shape=partialRectangle;connectable=0;fillColor=#f8cecc;top=0;left=0;bottom=0;right=0;fontStyle=1;overflow=hidden;strokeColor=#b85450;shadow=0;" parent="Ud4TdO5jimc6rSTcdH_G-80" vertex="1">
                    <mxGeometry width="59" height="50" as="geometry"/>
                </mxCell>
                <mxCell id="Ud4TdO5jimc6rSTcdH_G-82" value="fk_user_id" style="shape=partialRectangle;connectable=0;fillColor=#f8cecc;top=0;left=0;bottom=0;right=0;align=left;spacingLeft=6;fontStyle=5;overflow=hidden;strokeColor=#b85450;shadow=0;" parent="Ud4TdO5jimc6rSTcdH_G-80" vertex="1">
                    <mxGeometry x="59" width="121" height="50" as="geometry"/>
                </mxCell>
                <mxCell id="Ud4TdO5jimc6rSTcdH_G-103" value="" style="shape=partialRectangle;collapsible=0;dropTarget=0;pointerEvents=0;fillColor=none;top=0;left=0;bottom=1;right=0;points=[[0,0.5],[1,0.5]];portConstraint=eastwest;shadow=0;" parent="Ud4TdO5jimc6rSTcdH_G-76" vertex="1">
                    <mxGeometry y="50" width="180" height="50" as="geometry"/>
                </mxCell>
                <mxCell id="Ud4TdO5jimc6rSTcdH_G-104" value="FK2" style="shape=partialRectangle;connectable=0;fillColor=#f8cecc;top=0;left=0;bottom=0;right=0;fontStyle=1;overflow=hidden;strokeColor=#b85450;shadow=0;" parent="Ud4TdO5jimc6rSTcdH_G-103" vertex="1">
                    <mxGeometry width="59" height="50" as="geometry"/>
                </mxCell>
                <mxCell id="Ud4TdO5jimc6rSTcdH_G-105" value="fk_object_id" style="shape=partialRectangle;connectable=0;fillColor=#f8cecc;top=0;left=0;bottom=0;right=0;align=left;spacingLeft=6;fontStyle=5;overflow=hidden;strokeColor=#b85450;shadow=0;" parent="Ud4TdO5jimc6rSTcdH_G-103" vertex="1">
                    <mxGeometry x="59" width="121" height="50" as="geometry"/>
                </mxCell>
                <mxCell id="Ud4TdO5jimc6rSTcdH_G-92" style="edgeStyle=orthogonalEdgeStyle;rounded=0;orthogonalLoop=1;jettySize=auto;html=1;exitX=1;exitY=0.5;exitDx=0;exitDy=0;entryX=0;entryY=0.5;entryDx=0;entryDy=0;shadow=0;endArrow=none;endFill=0;strokeWidth=1;" parent="LmH7vjZOrNRtvjRKLYnd-1" source="Ud4TdO5jimc6rSTcdH_G-15" target="Ud4TdO5jimc6rSTcdH_G-80" edge="1">
                    <mxGeometry relative="1" as="geometry"/>
                </mxCell>
                <mxCell id="Ud4TdO5jimc6rSTcdH_G-122" value="object" style="shape=table;startSize=30;container=1;collapsible=1;childLayout=tableLayout;fixedRows=1;rowLines=0;fontStyle=1;align=center;resizeLast=1;shadow=0;fillColor=#dae8fc;strokeColor=#6c8ebf;" parent="LmH7vjZOrNRtvjRKLYnd-1" vertex="1">
                    <mxGeometry x="1360" y="120" width="180" height="100" as="geometry"/>
                </mxCell>
                <mxCell id="Ud4TdO5jimc6rSTcdH_G-126" value="" style="shape=partialRectangle;collapsible=0;dropTarget=0;pointerEvents=0;fillColor=none;top=0;left=0;bottom=1;right=0;points=[[0,0.5],[1,0.5]];portConstraint=eastwest;shadow=0;" parent="Ud4TdO5jimc6rSTcdH_G-122" vertex="1">
                    <mxGeometry y="30" width="180" height="30" as="geometry"/>
                </mxCell>
                <mxCell id="Ud4TdO5jimc6rSTcdH_G-127" value="PK" style="shape=partialRectangle;connectable=0;fillColor=#f8cecc;top=0;left=0;bottom=0;right=0;fontStyle=1;overflow=hidden;strokeColor=#b85450;shadow=0;" parent="Ud4TdO5jimc6rSTcdH_G-126" vertex="1">
                    <mxGeometry width="60" height="30" as="geometry"/>
                </mxCell>
                <mxCell id="Ud4TdO5jimc6rSTcdH_G-128" value="object_id" style="shape=partialRectangle;connectable=0;fillColor=#f8cecc;top=0;left=0;bottom=0;right=0;align=left;spacingLeft=6;fontStyle=5;overflow=hidden;strokeColor=#b85450;shadow=0;" parent="Ud4TdO5jimc6rSTcdH_G-126" vertex="1">
                    <mxGeometry x="60" width="120" height="30" as="geometry"/>
                </mxCell>
                <mxCell id="Ud4TdO5jimc6rSTcdH_G-129" value="" style="shape=partialRectangle;collapsible=0;dropTarget=0;pointerEvents=0;fillColor=none;top=0;left=0;bottom=0;right=0;points=[[0,0.5],[1,0.5]];portConstraint=eastwest;shadow=0;" parent="Ud4TdO5jimc6rSTcdH_G-122" vertex="1">
                    <mxGeometry y="60" width="180" height="30" as="geometry"/>
                </mxCell>
                <mxCell id="Ud4TdO5jimc6rSTcdH_G-130" value="" style="shape=partialRectangle;connectable=0;fillColor=none;top=0;left=0;bottom=0;right=0;editable=1;overflow=hidden;shadow=0;" parent="Ud4TdO5jimc6rSTcdH_G-129" vertex="1">
                    <mxGeometry width="60" height="30" as="geometry"/>
                </mxCell>
                <mxCell id="Ud4TdO5jimc6rSTcdH_G-131" value="name" style="shape=partialRectangle;connectable=0;fillColor=none;top=0;left=0;bottom=0;right=0;align=left;spacingLeft=6;overflow=hidden;shadow=0;" parent="Ud4TdO5jimc6rSTcdH_G-129" vertex="1">
                    <mxGeometry x="60" width="120" height="30" as="geometry"/>
                </mxCell>
                <mxCell id="Ud4TdO5jimc6rSTcdH_G-138" style="edgeStyle=orthogonalEdgeStyle;rounded=0;orthogonalLoop=1;jettySize=auto;html=1;exitX=1;exitY=0.5;exitDx=0;exitDy=0;entryX=0;entryY=0.5;entryDx=0;entryDy=0;shadow=0;endArrow=none;endFill=0;strokeWidth=1;" parent="LmH7vjZOrNRtvjRKLYnd-1" source="Ud4TdO5jimc6rSTcdH_G-103" target="Ud4TdO5jimc6rSTcdH_G-126" edge="1">
                    <mxGeometry relative="1" as="geometry"/>
                </mxCell>
                <mxCell id="LsHWUidnrq672FOqhZL1-0" value="1-N" style="text;strokeColor=none;fillColor=none;spacingLeft=4;spacingRight=4;overflow=hidden;rotatable=0;points=[[0,0.5],[1,0.5]];portConstraint=eastwest;fontSize=12;shadow=0;fontStyle=2" parent="LmH7vjZOrNRtvjRKLYnd-1" vertex="1">
                    <mxGeometry x="570" y="140" width="40" height="30" as="geometry"/>
                </mxCell>
                <mxCell id="LsHWUidnrq672FOqhZL1-1" value="1-1" style="text;strokeColor=none;fillColor=none;spacingLeft=4;spacingRight=4;overflow=hidden;rotatable=0;points=[[0,0.5],[1,0.5]];portConstraint=eastwest;fontSize=12;shadow=0;fontStyle=2" parent="LmH7vjZOrNRtvjRKLYnd-1" vertex="1">
                    <mxGeometry x="700" y="170" width="40" height="30" as="geometry"/>
                </mxCell>
                <mxCell id="LsHWUidnrq672FOqhZL1-2" value="0-N" style="text;strokeColor=none;fillColor=none;spacingLeft=4;spacingRight=4;overflow=hidden;rotatable=0;points=[[0,0.5],[1,0.5]];portConstraint=eastwest;fontSize=12;shadow=0;fontStyle=2" parent="LmH7vjZOrNRtvjRKLYnd-1" vertex="1">
                    <mxGeometry x="920" y="140" width="40" height="30" as="geometry"/>
                </mxCell>
                <mxCell id="LsHWUidnrq672FOqhZL1-3" value="1-1" style="text;strokeColor=none;fillColor=none;spacingLeft=4;spacingRight=4;overflow=hidden;rotatable=0;points=[[0,0.5],[1,0.5]];portConstraint=eastwest;fontSize=12;shadow=0;fontStyle=2" parent="LmH7vjZOrNRtvjRKLYnd-1" vertex="1">
                    <mxGeometry x="1000" y="140" width="40" height="30" as="geometry"/>
                </mxCell>
                <mxCell id="LsHWUidnrq672FOqhZL1-4" value="1-1" style="text;strokeColor=none;fillColor=none;spacingLeft=4;spacingRight=4;overflow=hidden;rotatable=0;points=[[0,0.5],[1,0.5]];portConstraint=eastwest;fontSize=12;shadow=0;fontStyle=2" parent="LmH7vjZOrNRtvjRKLYnd-1" vertex="1">
                    <mxGeometry x="1221" y="170" width="40" height="30" as="geometry"/>
                </mxCell>
                <mxCell id="LsHWUidnrq672FOqhZL1-5" value="0-N" style="text;strokeColor=none;fillColor=none;spacingLeft=4;spacingRight=4;overflow=hidden;rotatable=0;points=[[0,0.5],[1,0.5]];portConstraint=eastwest;fontSize=12;shadow=0;fontStyle=2" parent="LmH7vjZOrNRtvjRKLYnd-1" vertex="1">
                    <mxGeometry x="1320" y="140" width="40" height="30" as="geometry"/>
                </mxCell>
            </root>
        </mxGraphModel>
    </diagram>
</mxfile>